<svg width="24" height="24" viewBox="0 0 24 24" fill="none" xmlns="http://www.w3.org/2000/svg">
<path fill-rule="evenodd" clip-rule="evenodd" d="M3.21799 4.09202C3 4.51984 3 5.0799 3 6.2V17.8C3 18.9201 3 19.4802 3.21799 19.908C3.40973 20.2843 3.71569 20.5903 4.09202 20.782C4.51984 21 5.0799 21 6.2 21H17.8C18.9201 21 19.4802 21 19.908 20.782C20.2843 20.5903 20.5903 20.2843 20.782 19.908C21 19.4802 21 18.9201 21 17.8V6.2C21 5.0799 21 4.51984 20.782 4.09202C20.5903 3.71569 20.2843 3.40973 19.908 3.21799C19.4802 3 18.9201 3 17.8 3H6.2C5.0799 3 4.51984 3 4.09202 3.21799C3.71569 3.40973 3.40973 3.71569 3.21799 4.09202ZM15 4.5V10.1C15 10.9401 15 11.3601 14.8365 11.681C14.6927 11.9632 14.4632 12.1927 14.181 12.3365C13.8601 12.5 13.4401 12.5 12.6 12.5H11.4C10.5599 12.5 10.1399 12.5 9.81901 12.3365C9.53677 12.1927 9.3073 11.9632 9.16349 11.681C9 11.3601 9 10.9401 9 10.1V4.5H15Z" fill="black"/>
</svg>
