<svg width="24" height="24" viewBox="0 0 24 24" fill="none" xmlns="http://www.w3.org/2000/svg">
<path fill-rule="evenodd" clip-rule="evenodd" d="M3.05111 4.11177C3 4.30252 3 4.53501 3 5C3 5.46499 3 5.69748 3.05111 5.88823C3.18981 6.40587 3.59413 6.81019 4.11177 6.94889C4.30252 7 4.53501 7 5 7V17.8C5 18.9201 5 19.4802 5.21799 19.908C5.40973 20.2843 5.71569 20.5903 6.09202 20.782C6.51984 21 7.0799 21 8.2 21H15.8C16.9201 21 17.4802 21 17.908 20.782C18.2843 20.5903 18.5903 20.2843 18.782 19.908C19 19.4802 19 18.9201 19 17.8V7C19.465 7 19.6975 7 19.8882 6.94889C20.4059 6.81019 20.8102 6.40587 20.9489 5.88823C21 5.69748 21 5.46499 21 5C21 4.53501 21 4.30252 20.9489 4.11177C20.8102 3.59413 20.4059 3.18981 19.8882 3.05111C19.6975 3 19.465 3 19 3H5C4.53501 3 4.30252 3 4.11177 3.05111C3.59413 3.18981 3.18981 3.59413 3.05111 4.11177ZM8.75 12.75C8.33579 12.75 8 13.0858 8 13.5C8 13.9142 8.33579 14.25 8.75 14.25H15.25C15.6642 14.25 16 13.9142 16 13.5C16 13.0858 15.6642 12.75 15.25 12.75H8.75Z" fill="black"/>
</svg>
