<svg width="24" height="24" viewBox="0 0 24 24" fill="none" xmlns="http://www.w3.org/2000/svg">
<path d="M6.09202 20.782L6.43251 20.1138L6.09202 20.782ZM5.21799 19.908L5.88624 19.5675L5.21799 19.908ZM18.782 19.908L18.1138 19.5675L18.782 19.908ZM17.908 20.782L17.5675 20.1138L17.908 20.782ZM4.11177 6.94889L4.30589 6.22444L4.11177 6.94889ZM3.05111 5.88823L3.77556 5.69411L3.05111 5.88823ZM20.9489 5.88823L20.2244 5.69411L20.9489 5.88823ZM19.8882 6.94889L19.6941 6.22444L19.8882 6.94889ZM19.8882 3.05111L19.6941 3.77556L19.8882 3.05111ZM20.9489 4.11177L20.2244 4.30589L20.9489 4.11177ZM4.11177 3.05111L4.30589 3.77556L4.11177 3.05111ZM3.05111 4.11177L3.77556 4.30589L3.05111 4.11177ZM8.75 12.75C8.33579 12.75 8 13.0858 8 13.5C8 13.9142 8.33579 14.25 8.75 14.25V12.75ZM15.25 14.25C15.6642 14.25 16 13.9142 16 13.5C16 13.0858 15.6642 12.75 15.25 12.75V14.25ZM5 7.75H19V6.25H5V7.75ZM18.25 7V17.8H19.75V7H18.25ZM15.8 20.25H8.2V21.75H15.8V20.25ZM5.75 17.8V7H4.25V17.8H5.75ZM8.2 20.25C7.62757 20.25 7.24336 20.2494 6.94748 20.2252C6.66035 20.2018 6.52307 20.1599 6.43251 20.1138L5.75153 21.4503C6.08879 21.6221 6.44545 21.6892 6.82533 21.7203C7.19646 21.7506 7.65232 21.75 8.2 21.75V20.25ZM4.25 17.8C4.25 18.3477 4.24942 18.8035 4.27974 19.1747C4.31078 19.5546 4.37789 19.9112 4.54973 20.2485L5.88624 19.5675C5.8401 19.4769 5.79822 19.3396 5.77476 19.0525C5.75058 18.7566 5.75 18.3724 5.75 17.8H4.25ZM6.43251 20.1138C6.19731 19.9939 6.00608 19.8027 5.88624 19.5675L4.54973 20.2485C4.81338 20.7659 5.23408 21.1866 5.75153 21.4503L6.43251 20.1138ZM18.25 17.8C18.25 18.3724 18.2494 18.7566 18.2252 19.0525C18.2018 19.3396 18.1599 19.4769 18.1138 19.5675L19.4503 20.2485C19.6221 19.9112 19.6892 19.5546 19.7203 19.1747C19.7506 18.8035 19.75 18.3477 19.75 17.8H18.25ZM15.8 21.75C16.3477 21.75 16.8035 21.7506 17.1747 21.7203C17.5546 21.6892 17.9112 21.6221 18.2485 21.4503L17.5675 20.1138C17.4769 20.1599 17.3396 20.2018 17.0525 20.2252C16.7566 20.2494 16.3724 20.25 15.8 20.25V21.75ZM18.1138 19.5675C17.9939 19.8027 17.8027 19.9939 17.5675 20.1138L18.2485 21.4503C18.7659 21.1866 19.1866 20.7659 19.4503 20.2485L18.1138 19.5675ZM5 3.75H19V2.25H5V3.75ZM5 6.25C4.48673 6.25 4.37722 6.24356 4.30589 6.22444L3.91766 7.67333C4.22782 7.75644 4.5833 7.75 5 7.75V6.25ZM2.25 5C2.25 5.4167 2.24356 5.77218 2.32667 6.08234L3.77556 5.69411C3.75644 5.62278 3.75 5.51327 3.75 5H2.25ZM4.30589 6.22444C4.04707 6.15509 3.84491 5.95293 3.77556 5.69411L2.32667 6.08234C2.53472 6.8588 3.1412 7.46528 3.91766 7.67333L4.30589 6.22444ZM20.25 5C20.25 5.51327 20.2436 5.62278 20.2244 5.69411L21.6733 6.08234C21.7564 5.77218 21.75 5.4167 21.75 5H20.25ZM19 7.75C19.4167 7.75 19.7722 7.75644 20.0823 7.67333L19.6941 6.22444C19.6228 6.24356 19.5133 6.25 19 6.25V7.75ZM20.2244 5.69411C20.1551 5.95293 19.9529 6.15509 19.6941 6.22444L20.0823 7.67333C20.8588 7.46528 21.4653 6.8588 21.6733 6.08234L20.2244 5.69411ZM19 3.75C19.5133 3.75 19.6228 3.75644 19.6941 3.77556L20.0823 2.32667C19.7722 2.24356 19.4167 2.25 19 2.25V3.75ZM21.75 5C21.75 4.5833 21.7564 4.22782 21.6733 3.91766L20.2244 4.30589C20.2436 4.37722 20.25 4.48673 20.25 5H21.75ZM19.6941 3.77556C19.9529 3.84491 20.1551 4.04707 20.2244 4.30589L21.6733 3.91766C21.4653 3.1412 20.8588 2.53472 20.0823 2.32667L19.6941 3.77556ZM5 2.25C4.5833 2.25 4.22782 2.24356 3.91766 2.32667L4.30589 3.77556C4.37722 3.75644 4.48673 3.75 5 3.75V2.25ZM3.75 5C3.75 4.48673 3.75644 4.37722 3.77556 4.30589L2.32667 3.91766C2.24356 4.22782 2.25 4.5833 2.25 5H3.75ZM3.91766 2.32667C3.1412 2.53472 2.53472 3.1412 2.32667 3.91766L3.77556 4.30589C3.84491 4.04707 4.04707 3.84491 4.30589 3.77556L3.91766 2.32667ZM8.75 14.25H15.25V12.75H8.75V14.25Z" fill="black"/>
</svg>
