<svg width="24" height="24" viewBox="0 0 24 24" fill="none" xmlns="http://www.w3.org/2000/svg">
<path fill-rule="evenodd" clip-rule="evenodd" d="M17.8 3H6.2C5.0799 3 4.51984 3 4.09202 3.21799C3.71569 3.40973 3.40973 3.71569 3.21799 4.09202C3 4.51984 3 5.0799 3 6.2V17.8C3 18.9201 3 19.4802 3.21799 19.908C3.40973 20.2843 3.71569 20.5903 4.09202 20.782C4.51984 21 5.07989 21 6.2 21H13.1716C13.702 21 14.2107 20.7893 14.5858 20.4142L20.4142 14.5858C20.7893 14.2107 21 13.702 21 13.1716V6.2C21 5.0799 21 4.51984 20.782 4.09202C20.5903 3.71569 20.2843 3.40973 19.908 3.21799C19.4802 3 18.9201 3 17.8 3ZM6.75 7.25C6.33579 7.25 6 7.58579 6 8C6 8.41421 6.33579 8.75 6.75 8.75H17.25C17.6642 8.75 18 8.41421 18 8C18 7.58579 17.6642 7.25 17.25 7.25H6.75ZM6.75 11.25C6.33579 11.25 6 11.5858 6 12C6 12.4142 6.33579 12.75 6.75 12.75H11.25C11.6642 12.75 12 12.4142 12 12C12 11.5858 11.6642 11.25 11.25 11.25H6.75ZM6.75 15.25C6.33579 15.25 6 15.5858 6 16C6 16.4142 6.33579 16.75 6.75 16.75H9.25C9.66421 16.75 10 16.4142 10 16C10 15.5858 9.66421 15.25 9.25 15.25H6.75Z" fill="black"/>
</svg>
