<svg width="24" height="24" viewBox="0 0 24 24" fill="none" xmlns="http://www.w3.org/2000/svg">
<path d="M14 21V21.75C14.1989 21.75 14.3897 21.671 14.5303 21.5303L14 21ZM21 14L21.5303 14.5303C21.671 14.3897 21.75 14.1989 21.75 14H21ZM3.21799 19.908L2.54973 20.2485L2.54973 20.2485L3.21799 19.908ZM4.09202 20.782L4.43251 20.1138H4.43251L4.09202 20.782ZM19.908 3.21799L20.2485 2.54973L20.2485 2.54973L19.908 3.21799ZM20.782 4.09202L20.1138 4.43251V4.43251L20.782 4.09202ZM14.218 15.092L14.8862 15.4325V15.4325L14.218 15.092ZM15.092 14.218L15.4325 14.8862H15.4325L15.092 14.218ZM4.09202 3.21799L3.75153 2.54973L3.75153 2.54973L4.09202 3.21799ZM3.21799 4.09202L2.54973 3.75153L2.54973 3.75153L3.21799 4.09202ZM6.75 7.25C6.33579 7.25 6 7.58579 6 8C6 8.41421 6.33579 8.75 6.75 8.75V7.25ZM17.25 8.75C17.6642 8.75 18 8.41421 18 8C18 7.58579 17.6642 7.25 17.25 7.25V8.75ZM6.75 11.25C6.33579 11.25 6 11.5858 6 12C6 12.4142 6.33579 12.75 6.75 12.75V11.25ZM11.25 12.75C11.6642 12.75 12 12.4142 12 12C12 11.5858 11.6642 11.25 11.25 11.25V12.75ZM6.75 15.25C6.33579 15.25 6 15.5858 6 16C6 16.4142 6.33579 16.75 6.75 16.75V15.25ZM9.25 16.75C9.66421 16.75 10 16.4142 10 16C10 15.5858 9.66421 15.25 9.25 15.25V16.75ZM6.2 3.75H17.8V2.25H6.2V3.75ZM3.75 17.8V6.2H2.25V17.8H3.75ZM14 20.25H6.2V21.75H14V20.25ZM20.25 6.2V14H21.75V6.2H20.25ZM14.5303 21.5303L21.5303 14.5303L20.4697 13.4697L13.4697 20.4697L14.5303 21.5303ZM14.75 21V17.2H13.25V21H14.75ZM17.2 14.75H21V13.25H17.2V14.75ZM2.25 17.8C2.25 18.3477 2.24942 18.8035 2.27974 19.1747C2.31078 19.5546 2.37789 19.9112 2.54973 20.2485L3.88624 19.5675C3.8401 19.4769 3.79822 19.3396 3.77476 19.0525C3.75058 18.7566 3.75 18.3724 3.75 17.8H2.25ZM6.2 20.25C5.62757 20.25 5.24336 20.2494 4.94748 20.2252C4.66035 20.2018 4.52307 20.1599 4.43251 20.1138L3.75153 21.4503C4.08879 21.6221 4.44544 21.6892 4.82533 21.7203C5.19646 21.7506 5.65232 21.75 6.2 21.75V20.25ZM2.54973 20.2485C2.81338 20.7659 3.23408 21.1866 3.75153 21.4503L4.43251 20.1138C4.19731 19.9939 4.00608 19.8027 3.88624 19.5675L2.54973 20.2485ZM17.8 3.75C18.3724 3.75 18.7566 3.75058 19.0525 3.77476C19.3396 3.79822 19.4769 3.8401 19.5675 3.88624L20.2485 2.54973C19.9112 2.37789 19.5546 2.31078 19.1747 2.27974C18.8035 2.24942 18.3477 2.25 17.8 2.25V3.75ZM21.75 6.2C21.75 5.65232 21.7506 5.19646 21.7203 4.82533C21.6892 4.44545 21.6221 4.08879 21.4503 3.75153L20.1138 4.43251C20.1599 4.52307 20.2018 4.66035 20.2252 4.94748C20.2494 5.24336 20.25 5.62757 20.25 6.2H21.75ZM19.5675 3.88624C19.8027 4.00608 19.9939 4.19731 20.1138 4.43251L21.4503 3.75153C21.1866 3.23408 20.7659 2.81338 20.2485 2.54973L19.5675 3.88624ZM14.75 17.2C14.75 16.6276 14.7506 16.2434 14.7748 15.9475C14.7982 15.6604 14.8401 15.5231 14.8862 15.4325L13.5497 14.7515C13.3779 15.0888 13.3108 15.4454 13.2797 15.8253C13.2494 16.1965 13.25 16.6523 13.25 17.2H14.75ZM17.2 13.25C16.6523 13.25 16.1965 13.2494 15.8253 13.2797C15.4454 13.3108 15.0888 13.3779 14.7515 13.5497L15.4325 14.8862C15.5231 14.8401 15.6604 14.7982 15.9475 14.7748C16.2434 14.7506 16.6276 14.75 17.2 14.75V13.25ZM14.8862 15.4325C15.0061 15.1973 15.1973 15.0061 15.4325 14.8862L14.7515 13.5497C14.2341 13.8134 13.8134 14.2341 13.5497 14.7515L14.8862 15.4325ZM6.2 2.25C5.65232 2.25 5.19646 2.24942 4.82533 2.27974C4.44545 2.31078 4.08879 2.37789 3.75153 2.54973L4.43251 3.88624C4.52307 3.8401 4.66035 3.79822 4.94748 3.77476C5.24336 3.75058 5.62757 3.75 6.2 3.75V2.25ZM3.75 6.2C3.75 5.62757 3.75058 5.24336 3.77476 4.94748C3.79822 4.66035 3.8401 4.52307 3.88624 4.43251L2.54973 3.75153C2.37789 4.08879 2.31078 4.44545 2.27974 4.82533C2.24942 5.19646 2.25 5.65232 2.25 6.2H3.75ZM3.75153 2.54973C3.23408 2.81338 2.81338 3.23408 2.54973 3.75153L3.88624 4.43251C4.00608 4.19731 4.19731 4.00608 4.43251 3.88624L3.75153 2.54973ZM6.75 8.75H17.25V7.25H6.75V8.75ZM6.75 12.75H11.25V11.25H6.75V12.75ZM6.75 16.75H9.25V15.25H6.75V16.75Z" fill="black"/>
</svg>
