<svg width="24" height="24" viewBox="0 0 24 24" fill="none" xmlns="http://www.w3.org/2000/svg">
<path d="M10 16H6.13333C5.3866 16 5.01323 16 4.72801 15.8547C4.47713 15.7268 4.27316 15.5229 4.14532 15.272C4 14.9868 4 14.6134 4 13.8667V6.13333C4 5.3866 4 5.01323 4.14532 4.72801C4.27316 4.47713 4.47713 4.27316 4.72801 4.14532C5.01323 4 5.3866 4 6.13333 4H13.8667C14.6134 4 14.9868 4 15.272 4.14532C15.5229 4.27316 15.7268 4.47713 15.8547 4.72801C16 5.01323 16 5.3866 16 6.13333V9" stroke="black" stroke-width="1.5" stroke-linecap="round" stroke-linejoin="round"/>
<path fill-rule="evenodd" clip-rule="evenodd" d="M10.3111 8H18.6889C19.4979 8 19.9023 8 20.2113 8.15744C20.4831 8.29592 20.7041 8.51689 20.8426 8.78868C21 9.09766 21 9.50215 21 10.3111V18.6889C21 19.4979 21 19.9023 20.8426 20.2113C20.7041 20.4831 20.4831 20.7041 20.2113 20.8426C19.9023 21 19.4979 21 18.6889 21H10.3111C9.50215 21 9.09766 21 8.78868 20.8426C8.51689 20.7041 8.29592 20.4831 8.15744 20.2113C8 19.9023 8 19.4979 8 18.6889V10.3111C8 9.50215 8 9.09766 8.15744 8.78868C8.29592 8.51689 8.51689 8.29592 8.78868 8.15744C9.09766 8 9.50215 8 10.3111 8ZM10.7083 11.1112C10.4322 11.1112 10.2083 11.335 10.2083 11.6112C10.2083 11.8873 10.4322 12.1112 10.7083 12.1112H18.2917C18.5678 12.1112 18.7917 11.8873 18.7917 11.6112C18.7917 11.335 18.5678 11.1112 18.2917 11.1112H10.7083ZM10.7083 14C10.4322 14 10.2083 14.2239 10.2083 14.5C10.2083 14.7762 10.4322 15 10.7083 15H18.2917C18.5678 15 18.7917 14.7762 18.7917 14.5C18.7917 14.2239 18.5678 14 18.2917 14H10.7083ZM10.7083 16.8889C10.4322 16.8889 10.2083 17.1128 10.2083 17.3889C10.2083 17.6651 10.4322 17.8889 10.7083 17.8889H18.2917C18.5678 17.8889 18.7917 17.6651 18.7917 17.3889C18.7917 17.1128 18.5678 16.8889 18.2917 16.8889H10.7083Z" fill="black"/>
</svg>
