<svg width="18" height="18" viewBox="0 0 20 18" fill="none" xmlns="http://www.w3.org/2000/svg">
<path d="M9.5 8.33333H16.5M9.5 11H16.5M9.5 13.6667H16.5M13 5V3.13333C13 2.3866 13 2.01323 12.8547 1.72801C12.7268 1.47713 12.5229 1.27316 12.272 1.14532C11.9868 1 11.6134 1 10.8667 1H3.13333C2.3866 1 2.01323 1 1.72801 1.14532C1.47713 1.27316 1.27316 1.47713 1.14532 1.72801C1 2.01323 1 2.3866 1 3.13333V10.8667C1 11.6134 1 11.9868 1.14532 12.272C1.27316 12.5229 1.47713 12.7268 1.72801 12.8547C2.01323 13 2.3866 13 3.13333 13H7M9.13333 17H16.8667C17.6134 17 17.9868 17 18.272 16.8547C18.5229 16.7268 18.7268 16.5229 18.8547 16.272C19 15.9868 19 15.6134 19 14.8667V7.13333C19 6.3866 19 6.01323 18.8547 5.72801C18.7268 5.47713 18.5229 5.27316 18.272 5.14532C17.9868 5 17.6134 5 16.8667 5H9.13333C8.3866 5 8.01323 5 7.72801 5.14532C7.47713 5.27316 7.27316 5.47713 7.14532 5.72801C7 6.01323 7 6.3866 7 7.13333V14.8667C7 15.6134 7 15.9868 7.14532 16.272C7.27316 16.5229 7.47713 16.7268 7.72801 16.8547C8.01323 17 8.3866 17 9.13333 17Z" stroke="black" stroke-width="1.5" stroke-linecap="round" stroke-linejoin="round"/>
</svg>
