<svg width="24" height="24" viewBox="0 0 24 24" fill="none" xmlns="http://www.w3.org/2000/svg">
<path fill-rule="evenodd" clip-rule="evenodd" d="M3.21799 4.09202C3 4.51984 3 5.0799 3 6.2V17.8C3 18.9201 3 19.4802 3.21799 19.908C3.40973 20.2843 3.71569 20.5903 4.09202 20.782C4.51984 21 5.0799 21 6.2 21H17.8C18.9201 21 19.4802 21 19.908 20.782C20.2843 20.5903 20.5903 20.2843 20.782 19.908C21 19.4802 21 18.9201 21 17.8V6.2C21 5.0799 21 4.51984 20.782 4.09202C20.5903 3.71569 20.2843 3.40973 19.908 3.21799C19.4802 3 18.9201 3 17.8 3H6.2C5.0799 3 4.51984 3 4.09202 3.21799C3.71569 3.40973 3.40973 3.71569 3.21799 4.09202ZM13 7.75C13 8.30228 12.5523 8.75 12 8.75C11.4477 8.75 11 8.30228 11 7.75C11 7.19772 11.4477 6.75 12 6.75C12.5523 6.75 13 7.19772 13 7.75ZM13 12.05C13 12.6023 12.5523 13.05 12 13.05C11.4477 13.05 11 12.6023 11 12.05C11 11.4977 11.4477 11.05 12 11.05C12.5523 11.05 13 11.4977 13 12.05ZM12 17.35C12.5523 17.35 13 16.9023 13 16.35C13 15.7977 12.5523 15.35 12 15.35C11.4477 15.35 11 15.7977 11 16.35C11 16.9023 11.4477 17.35 12 17.35Z" fill="black"/>
</svg>
