<svg width="24" height="24" viewBox="0 0 24 24" fill="none" xmlns="http://www.w3.org/2000/svg">
<rect x="3" y="3" width="18" height="18" rx="2" stroke="black" stroke-width="1.5" stroke-linecap="round" stroke-linejoin="round"/>
<path d="M13 7.75C13 8.30228 12.5523 8.75 12 8.75C11.4477 8.75 11 8.30228 11 7.75C11 7.19772 11.4477 6.75 12 6.75C12.5523 6.75 13 7.19772 13 7.75Z" fill="black"/>
<path d="M13 12.05C13 12.6023 12.5523 13.05 12 13.05C11.4477 13.05 11 12.6023 11 12.05C11 11.4977 11.4477 11.05 12 11.05C12.5523 11.05 13 11.4977 13 12.05Z" fill="black"/>
<path d="M13 16.35C13 16.9023 12.5523 17.35 12 17.35C11.4477 17.35 11 16.9023 11 16.35C11 15.7977 11.4477 15.35 12 15.35C12.5523 15.35 13 15.7977 13 16.35Z" fill="black"/>
</svg>
