<svg width="24" height="24" viewBox="0 0 24 24" fill="none" xmlns="http://www.w3.org/2000/svg">
<path fill-rule="evenodd" clip-rule="evenodd" d="M2 8.2C2 7.0799 2 6.51984 2.21799 6.09202C2.40973 5.71569 2.71569 5.40973 3.09202 5.21799C3.51984 5 4.0799 5 5.2 5H18.8C19.9201 5 20.4802 5 20.908 5.21799C21.2843 5.40973 21.5903 5.71569 21.782 6.09202C22 6.51984 22 7.0799 22 8.2V15.8C22 16.9201 22 17.4802 21.782 17.908C21.5903 18.2843 21.2843 18.5903 20.908 18.782C20.4802 19 19.9201 19 18.8 19H5.2C4.0799 19 3.51984 19 3.09202 18.782C2.71569 18.5903 2.40973 18.2843 2.21799 17.908C2 17.4802 2 16.9201 2 15.8V8.2ZM16.5 15.25C16.5 15.6642 16.1642 16 15.75 16C15.3358 16 15 15.6642 15 15.25C15 14.8358 15.3358 14.5 15.75 14.5C16.1642 14.5 16.5 14.8358 16.5 15.25ZM19 15.25C19 15.6642 18.6642 16 18.25 16C17.8358 16 17.5 15.6642 17.5 15.25C17.5 14.8358 17.8358 14.5 18.25 14.5C18.6642 14.5 19 14.8358 19 15.25ZM4 8.25C3.58579 8.25 3.25 8.58579 3.25 9C3.25 9.41421 3.58579 9.75 4 9.75H20C20.4142 9.75 20.75 9.41421 20.75 9C20.75 8.58579 20.4142 8.25 20 8.25H4Z" fill="black"/>
</svg>
