<svg width="24" height="24" viewBox="0 0 24 24" fill="none" xmlns="http://www.w3.org/2000/svg">
<path d="M3 9V16.5C3 17.6046 3.89543 18.5 5 18.5H19C20.1046 18.5 21 17.6046 21 16.5V9M3 9V7.5C3 6.39543 3.89543 5.5 5 5.5H19C20.1046 5.5 21 6.39543 21 7.5V9M3 9H21" stroke="black" stroke-width="1.5"/>
<path d="M19 15.25C19 15.6642 18.6642 16 18.25 16C17.8358 16 17.5 15.6642 17.5 15.25C17.5 14.8358 17.8358 14.5 18.25 14.5C18.6642 14.5 19 14.8358 19 15.25Z" fill="black"/>
<path d="M16.5 15.25C16.5 15.6642 16.1642 16 15.75 16C15.3358 16 15 15.6642 15 15.25C15 14.8358 15.3358 14.5 15.75 14.5C16.1642 14.5 16.5 14.8358 16.5 15.25Z" fill="black"/>
</svg>
