<svg width="24" height="24" viewBox="0 0 24 24" fill="none" xmlns="http://www.w3.org/2000/svg">
<path d="M9.31775 5.5323L9.60534 6.22497L9.31775 5.5323ZM8.15962 5.33123L7.62929 5.86156L7.62929 5.86156L8.15962 5.33123ZM7.97777 5.14938L8.5081 4.61905L8.5081 4.61905L7.97777 5.14938ZM6.12274 5.14938L6.65307 5.67971H6.65307L6.12274 5.14938ZM5.14935 6.12277L4.61902 5.59244L5.14935 6.12277ZM5.14935 7.97782L5.67968 7.44749H5.67968L5.14935 7.97782ZM5.33123 8.1597L5.86156 7.62937V7.62937L5.33123 8.1597ZM5.53229 9.31778L4.83961 9.03019L5.53229 9.31778ZM5.5323 14.6823L6.22498 14.3947L5.5323 14.6823ZM5.33124 15.8404L4.80091 15.3101L4.80091 15.3101L5.33124 15.8404ZM5.14937 17.8774L5.6797 17.3471L5.14937 17.8774ZM6.12268 18.8507L5.59235 19.381H5.59235L6.12268 18.8507ZM7.97782 18.8507L7.44749 18.3204L7.44749 18.3204L7.97782 18.8507ZM8.15975 18.6688L8.69008 19.1991L8.69008 19.1991L8.15975 18.6688ZM9.31779 18.4677L9.60537 17.775L9.31779 18.4677ZM14.6822 18.4677L14.9698 19.1604H14.9698L14.6822 18.4677ZM16.0222 18.8507L16.5525 18.3203H16.5525L16.0222 18.8507ZM17.8773 18.8507L17.347 18.3203H17.347L17.8773 18.8507ZM18.8506 17.8773L19.381 18.4077L18.8506 17.8773ZM18.4677 14.6822L19.1604 14.9698V14.9698L18.4677 14.6822ZM18.4677 9.31779L17.775 9.60537L18.4677 9.31779ZM18.8507 7.97787L18.3203 7.44754V7.44754L18.8507 7.97787ZM18.8507 6.12284L19.381 5.59251V5.59251L18.8507 6.12284ZM17.8772 5.14942L17.3469 5.67975V5.67975L17.8772 5.14942ZM16.0223 5.14941L15.4919 4.61908L15.4919 4.61909L16.0223 5.14941ZM15.8404 5.33124L16.3708 5.86157L16.3708 5.86157L15.8404 5.33124ZM14.6823 5.5323L14.3947 6.22498L14.6823 5.5323ZM10.75 4.3117C10.75 4.00148 11.0015 3.75 11.3117 3.75V2.25C10.1731 2.25 9.25 3.17305 9.25 4.3117H10.75ZM10.75 4.56875V4.3117H9.25V4.56875H10.75ZM9.60534 6.22497C10.2355 5.96335 10.75 5.34558 10.75 4.56875H9.25C9.25 4.64757 9.19028 4.77315 9.03017 4.83963L9.60534 6.22497ZM7.62929 5.86156C8.17514 6.40741 8.96898 6.48918 9.60534 6.22497L9.03017 4.83963C8.87599 4.90364 8.74936 4.86032 8.68995 4.8009L7.62929 5.86156ZM7.44744 5.67971L7.62929 5.86156L8.68995 4.80091L8.5081 4.61905L7.44744 5.67971ZM6.65307 5.67971C6.87243 5.46035 7.22808 5.46035 7.44744 5.67971L8.5081 4.61905C7.70295 3.81391 6.39755 3.81391 5.59241 4.61905L6.65307 5.67971ZM5.67968 6.6531L6.65307 5.67971L5.59241 4.61905L4.61902 5.59244L5.67968 6.6531ZM5.67968 7.44749C5.46032 7.22812 5.46032 6.87246 5.67968 6.6531L4.61902 5.59244C3.81387 6.39759 3.81387 7.703 4.61902 8.50815L5.67968 7.44749ZM5.86156 7.62937L5.67968 7.44749L4.61902 8.50815L4.8009 8.69003L5.86156 7.62937ZM6.22496 9.60536C6.48916 8.96901 6.40739 8.1752 5.86156 7.62937L4.8009 8.69003C4.8603 8.74943 4.90362 8.87603 4.83961 9.03019L6.22496 9.60536ZM4.56878 10.75C5.34559 10.75 5.96335 10.2355 6.22496 9.60536L4.83961 9.03019C4.77314 9.19029 4.64758 9.25 4.56878 9.25V10.75ZM4.3117 10.75H4.56878V9.25H4.3117V10.75ZM3.75 11.3117C3.75 11.0015 4.00148 10.75 4.3117 10.75V9.25C3.17305 9.25 2.25 10.1731 2.25 11.3117H3.75ZM3.75 12.6883V11.3117H2.25V12.6883H3.75ZM4.3117 13.25C4.00148 13.25 3.75 12.9985 3.75 12.6883H2.25C2.25 13.8269 3.17305 14.75 4.3117 14.75V13.25ZM4.56873 13.25H4.3117V14.75H4.56873V13.25ZM6.22498 14.3947C5.96336 13.7646 5.34557 13.25 4.56873 13.25V14.75C4.64756 14.75 4.77315 14.8097 4.83963 14.9699L6.22498 14.3947ZM5.86157 16.3708C6.40743 15.8249 6.48919 15.0311 6.22498 14.3947L4.83963 14.9699C4.90365 15.124 4.86033 15.2507 4.80091 15.3101L5.86157 16.3708ZM5.6797 16.5526L5.86157 16.3708L4.80091 15.3101L4.61904 15.492L5.6797 16.5526ZM5.6797 17.3471C5.46032 17.1277 5.46032 16.772 5.6797 16.5526L4.61904 15.492C3.81388 16.2971 3.81388 17.6026 4.61904 18.4077L5.6797 17.3471ZM6.65301 18.3204L5.6797 17.3471L4.61904 18.4077L5.59235 19.381L6.65301 18.3204ZM7.44749 18.3204C7.2281 18.5398 6.8724 18.5398 6.65301 18.3204L5.59235 19.381C6.39752 20.1862 7.70298 20.1862 8.50815 19.381L7.44749 18.3204ZM7.62942 18.1384L7.44749 18.3204L8.50815 19.381L8.69008 19.1991L7.62942 18.1384ZM9.60537 17.775C8.96904 17.5109 8.17524 17.5926 7.62942 18.1384L8.69008 19.1991C8.74947 19.1397 8.87606 19.0964 9.03021 19.1604L9.60537 17.775ZM10.75 19.4312C10.75 18.6544 10.2355 18.0366 9.60537 17.775L9.03021 19.1604C9.1903 19.2269 9.25 19.3524 9.25 19.4312H10.75ZM10.75 19.6883V19.4312H9.25V19.6883H10.75ZM11.3117 20.25C11.0015 20.25 10.75 19.9985 10.75 19.6883H9.25C9.25 20.8269 10.1731 21.75 11.3117 21.75V20.25ZM12.6883 20.25H11.3117V21.75H12.6883V20.25ZM13.25 19.6883C13.25 19.9985 12.9985 20.25 12.6883 20.25V21.75C13.8269 21.75 14.75 20.8269 14.75 19.6883H13.25ZM13.25 19.4312V19.6883H14.75V19.4312H13.25ZM14.3946 17.775C13.7645 18.0366 13.25 18.6544 13.25 19.4312H14.75C14.75 19.3524 14.8097 19.2269 14.9698 19.1604L14.3946 17.775ZM16.3706 18.1384C15.8248 17.5926 15.031 17.5108 14.3946 17.775L14.9698 19.1604C15.124 19.0964 15.2506 19.1397 15.31 19.1991L16.3706 18.1384ZM16.5525 18.3203L16.3706 18.1384L15.31 19.1991L15.4919 19.381L16.5525 18.3203ZM17.347 18.3203C17.1276 18.5397 16.7719 18.5397 16.5525 18.3203L15.4919 19.381C16.297 20.1862 17.6025 20.1862 18.4076 19.381L17.347 18.3203ZM18.3203 17.347L17.347 18.3203L18.4076 19.381L19.381 18.4077L18.3203 17.347ZM18.3203 16.5526C18.5397 16.772 18.5397 17.1276 18.3203 17.347L19.381 18.4077C20.1861 17.6025 20.1861 16.2971 19.381 15.4919L18.3203 16.5526ZM18.1384 16.3707L18.3203 16.5526L19.381 15.4919L19.1991 15.3101L18.1384 16.3707ZM17.775 14.3947C17.5108 15.031 17.5926 15.8249 18.1384 16.3707L19.1991 15.3101C19.1397 15.2506 19.0964 15.124 19.1604 14.9698L17.775 14.3947ZM19.4312 13.25C18.6544 13.25 18.0366 13.7645 17.775 14.3947L19.1604 14.9698C19.2269 14.8097 19.3524 14.75 19.4312 14.75V13.25ZM19.6883 13.25H19.4312V14.75H19.6883V13.25ZM20.25 12.6883C20.25 12.9985 19.9985 13.25 19.6883 13.25V14.75C20.8269 14.75 21.75 13.8269 21.75 12.6883H20.25ZM20.25 11.3117V12.6883H21.75V11.3117H20.25ZM19.6883 10.75C19.9985 10.75 20.25 11.0015 20.25 11.3117H21.75C21.75 10.1731 20.8269 9.25 19.6883 9.25V10.75ZM19.4312 10.75H19.6883V9.25H19.4312V10.75ZM17.775 9.60537C18.0366 10.2355 18.6544 10.75 19.4312 10.75V9.25C19.3524 9.25 19.2269 9.1903 19.1604 9.03021L17.775 9.60537ZM18.1384 7.62942C17.5926 8.17524 17.5109 8.96904 17.775 9.60537L19.1604 9.03021C19.0964 8.87606 19.1397 8.74947 19.1991 8.69008L18.1384 7.62942ZM18.3203 7.44754L18.1384 7.62942L19.1991 8.69008L19.381 8.5082L18.3203 7.44754ZM18.3203 6.65317C18.5397 6.87253 18.5397 7.22818 18.3203 7.44754L19.381 8.5082C20.1861 7.70305 20.1861 6.39765 19.381 5.59251L18.3203 6.65317ZM17.3469 5.67975L18.3203 6.65317L19.381 5.59251L18.4076 4.61909L17.3469 5.67975ZM16.5526 5.67974C16.7719 5.4604 17.1276 5.4604 17.3469 5.67975L18.4076 4.61909C17.6024 3.81395 16.2971 3.81395 15.4919 4.61908L16.5526 5.67974ZM16.3708 5.86157L16.5526 5.67974L15.4919 4.61909L15.3101 4.80091L16.3708 5.86157ZM14.3947 6.22498C15.0311 6.48919 15.8249 6.40743 16.3708 5.86157L15.3101 4.80091C15.2507 4.86033 15.124 4.90365 14.9699 4.83963L14.3947 6.22498ZM13.25 4.56873C13.25 5.34557 13.7646 5.96336 14.3947 6.22498L14.9699 4.83963C14.8097 4.77315 14.75 4.64756 14.75 4.56873H13.25ZM13.25 4.3117V4.56873H14.75V4.3117H13.25ZM12.6883 3.75C12.9985 3.75 13.25 4.00148 13.25 4.3117H14.75C14.75 3.17305 13.8269 2.25 12.6883 2.25V3.75ZM11.3117 3.75H12.6883V2.25H11.3117V3.75ZM15.25 12C15.25 13.7949 13.7949 15.25 12 15.25V16.75C14.6234 16.75 16.75 14.6234 16.75 12H15.25ZM12 8.75C13.7949 8.75 15.25 10.2051 15.25 12H16.75C16.75 9.37665 14.6234 7.25 12 7.25V8.75ZM8.75 12C8.75 10.2051 10.2051 8.75 12 8.75V7.25C9.37665 7.25 7.25 9.37665 7.25 12H8.75ZM12 15.25C10.2051 15.25 8.75 13.7949 8.75 12H7.25C7.25 14.6234 9.37665 16.75 12 16.75V15.25Z" fill="black"/>
</svg>
