<svg width="24" height="24" viewBox="0 0 24 24" fill="none" xmlns="http://www.w3.org/2000/svg">
<path fill-rule="evenodd" clip-rule="evenodd" d="M11.3117 3C10.5873 3 10 3.58727 10 4.3117V4.56875C10 4.99657 9.71287 5.36825 9.31775 5.5323C8.92248 5.69641 8.46225 5.63387 8.15962 5.33123L7.97777 5.14938C7.46552 4.63713 6.63499 4.63713 6.12274 5.14938L5.14935 6.12277C4.63709 6.63503 4.63709 7.46556 5.14935 7.97782L5.33123 8.1597C5.63385 8.46232 5.69639 8.92252 5.53229 9.31778C5.36825 9.71288 4.99658 10 4.56878 10H4.3117C3.58727 10 3 10.5873 3 11.3117V12.6883C3 13.4127 3.58727 14 4.3117 14H4.56873C4.99656 14 5.36825 14.2871 5.5323 14.6823C5.69642 15.0775 5.63388 15.5378 5.33124 15.8404L5.14937 16.0223C4.6371 16.5346 4.6371 17.3651 5.14937 17.8774L6.12268 18.8507C6.63496 19.363 7.46554 19.363 7.97782 18.8507L8.15975 18.6688C8.46236 18.3662 8.92255 18.3036 9.31779 18.4677C9.71289 18.6318 10 19.0034 10 19.4312V19.6883C10 20.4127 10.5873 21 11.3117 21H12.6883C13.4127 21 14 20.4127 14 19.6883V19.4312C14 19.0034 14.2871 18.6318 14.6822 18.4677C15.0775 18.3036 15.5377 18.3662 15.8403 18.6688L16.0222 18.8507C16.5345 19.3629 17.365 19.3629 17.8773 18.8507L18.8506 17.8773C19.3629 17.3651 19.3629 16.5345 18.8506 16.0222L18.6688 15.8404C18.3661 15.5377 18.3036 15.0775 18.4677 14.6822C18.6317 14.2871 19.0034 14 19.4312 14H19.6883C20.4127 14 21 13.4127 21 12.6883V11.3117C21 10.5873 20.4127 10 19.6883 10H19.4312C19.0034 10 18.6318 9.71289 18.4677 9.31779C18.3036 8.92255 18.3662 8.46236 18.6688 8.15975L18.8507 7.97787C19.3629 7.46561 19.3629 6.63509 18.8507 6.12284L17.8772 5.14942C17.365 4.63718 16.5345 4.63718 16.0223 5.14941L15.8404 5.33124C15.5378 5.63388 15.0775 5.69642 14.6823 5.5323C14.2871 5.36825 14 4.99656 14 4.56873V4.3117C14 3.58727 13.4127 3 12.6883 3H11.3117ZM12 16C14.2091 16 16 14.2091 16 12C16 9.79086 14.2091 8 12 8C9.79086 8 8 9.79086 8 12C8 14.2091 9.79086 16 12 16Z" fill="black"/>
</svg>
