<svg width="24" height="24" viewBox="0 0 24 24" fill="none" xmlns="http://www.w3.org/2000/svg">
<rect x="3" y="3" width="18" height="18" rx="2" stroke="black" stroke-width="1.5" stroke-linejoin="round"/>
<path d="M11.4494 13.7416L11.1404 9.80899V7H12.9663V9.80899L12.6433 13.7416H11.4494ZM12.7978 16.691C12.5918 16.897 12.3436 17 12.0534 17C11.7631 17 11.515 16.897 11.309 16.691C11.103 16.485 11 16.2369 11 15.9466C11 15.6564 11.0983 15.4082 11.2949 15.2022C11.5009 14.9963 11.7537 14.8933 12.0534 14.8933C12.3436 14.8933 12.5918 14.9963 12.7978 15.2022C13.0037 15.4082 13.1067 15.6564 13.1067 15.9466C13.1067 16.2369 13.0037 16.485 12.7978 16.691Z" fill="black"/>
</svg>
