<svg width="24" height="24" viewBox="0 0 24 24" fill="none" xmlns="http://www.w3.org/2000/svg">
<path fill-rule="evenodd" clip-rule="evenodd" d="M3.21799 4.09202C3 4.51984 3 5.0799 3 6.2V17.8C3 18.9201 3 19.4802 3.21799 19.908C3.40973 20.2843 3.71569 20.5903 4.09202 20.782C4.51984 21 5.0799 21 6.2 21H17.8C18.9201 21 19.4802 21 19.908 20.782C20.2843 20.5903 20.5903 20.2843 20.782 19.908C21 19.4802 21 18.9201 21 17.8V6.2C21 5.0799 21 4.51984 20.782 4.09202C20.5903 3.71569 20.2843 3.40973 19.908 3.21799C19.4802 3 18.9201 3 17.8 3H6.2C5.0799 3 4.51984 3 4.09202 3.21799C3.71569 3.40973 3.40973 3.71569 3.21799 4.09202ZM11.1404 9.80899L11.4494 13.7416H12.6433L12.9663 9.80899V7H11.1404V9.80899ZM12.0534 17C12.3436 17 12.5918 16.897 12.7978 16.691C13.0037 16.485 13.1067 16.2369 13.1067 15.9466C13.1067 15.6564 13.0037 15.4082 12.7978 15.2022C12.5918 14.9963 12.3436 14.8933 12.0534 14.8933C11.7537 14.8933 11.5009 14.9963 11.2949 15.2022C11.0983 15.4082 11 15.6564 11 15.9466C11 16.2369 11.103 16.485 11.309 16.691C11.515 16.897 11.7631 17 12.0534 17Z" fill="black"/>
</svg>
