<?xml version="1.0" standalone="no"?>
<!DOCTYPE svg PUBLIC "-//W3C//DTD SVG 20010904//EN"
 "http://www.w3.org/TR/2001/REC-SVG-20010904/DTD/svg10.dtd">
<svg version="1.0" xmlns="http://www.w3.org/2000/svg"
 width="1280.000000pt" height="1280.000000pt" viewBox="0 0 1280.000000 1280.000000"
 preserveAspectRatio="xMidYMid meet">

<g transform="translate(0.000000,1280.000000) scale(0.100000,-0.100000)"
fill="#970c72" stroke="none">
<path d="M6243 12093 c-79 -4 -77 -2 -73 -73 3 -57 58 -328 86 -420 27 -90 40
-122 142 -350 162 -365 341 -582 652 -790 96 -65 184 -107 427 -206 201 -82
416 -184 528 -251 55 -33 132 -76 170 -96 39 -21 106 -63 150 -95 44 -31 98
-68 120 -81 57 -35 158 -118 243 -200 87 -84 112 -90 131 -33 41 130 52 580
17 737 -33 146 -90 304 -163 450 -52 103 -69 133 -113 204 -22 34 -40 65 -40
67 0 14 -122 173 -192 251 -140 154 -284 275 -428 359 -36 20 -93 57 -127 81
-33 24 -91 57 -127 73 -36 17 -89 44 -116 61 -97 60 -416 187 -580 232 -175
47 -482 91 -600 85 -19 -1 -68 -4 -107 -5z"/>
<path d="M9869 10743 c-155 -210 -323 -525 -419 -788 -90 -246 -110 -346 -110
-565 0 -226 33 -388 123 -605 31 -73 194 -394 211 -415 7 -8 29 -42 49 -75 19
-33 57 -85 84 -116 26 -31 56 -66 65 -78 10 -11 25 -21 33 -21 40 0 227 218
334 390 104 166 121 200 174 365 63 193 100 414 91 542 -18 264 -54 432 -134
638 -17 44 -40 103 -50 132 -38 106 -138 301 -176 343 -41 45 -70 84 -160 218
-30 45 -61 82 -67 82 -7 0 -29 -21 -48 -47z"/>
<path d="M4945 10643 c-535 -44 -682 -77 -1055 -236 -299 -127 -724 -389 -961
-591 -20 -17 -76 -65 -124 -106 -81 -69 -165 -160 -380 -410 -44 -52 -104
-121 -134 -154 -29 -34 -80 -96 -113 -139 -33 -43 -68 -83 -79 -90 -32 -20
-22 -41 49 -108 177 -170 415 -326 662 -434 58 -25 114 -50 125 -55 80 -38
402 -146 476 -160 343 -67 515 -71 709 -16 136 39 361 121 456 166 48 23 135
62 193 87 408 173 905 461 1197 695 50 40 115 93 145 117 109 87 299 273 353
346 31 40 84 98 117 127 55 48 59 53 43 65 -10 7 -29 13 -43 13 -14 -1 -128 2
-253 6 -182 6 -253 4 -360 -9 -73 -10 -191 -24 -263 -33 -71 -8 -159 -21 -195
-29 -36 -7 -101 -19 -145 -25 -44 -7 -116 -22 -160 -35 -44 -12 -141 -37 -215
-55 -202 -49 -343 -97 -490 -167 -150 -72 -179 -83 -221 -83 -29 0 -47 7 -64
25 -30 29 -30 38 -7 77 24 41 106 90 317 190 199 94 398 164 580 203 403 87
606 122 761 130 498 25 554 27 689 16 322 -26 459 -64 835 -233 221 -99 440
-194 478 -208 17 -7 32 -16 32 -20 0 -9 -77 -20 -141 -20 -27 0 -79 -4 -116
-10 -38 -5 -125 -17 -195 -25 -120 -15 -154 -23 -343 -81 -114 -36 -309 -133
-394 -197 -40 -30 -121 -101 -179 -159 -59 -57 -143 -135 -187 -173 -44 -39
-132 -120 -195 -180 -63 -61 -169 -156 -235 -212 -66 -55 -131 -113 -145 -128
-22 -24 -120 -107 -268 -228 -26 -21 -73 -51 -104 -68 -78 -40 -79 -54 -3 -82
88 -32 359 -109 470 -132 211 -46 625 -57 843 -24 286 43 604 136 701 205 25
18 93 66 151 106 173 119 233 169 455 378 213 200 358 321 425 355 94 48 237
75 292 55 38 -13 100 -84 217 -248 44 -62 108 -146 143 -188 87 -104 118 -145
189 -248 61 -88 126 -212 116 -222 -2 -3 -56 5 -118 17 -99 19 -149 22 -379
23 -239 1 -276 -1 -378 -22 -251 -51 -480 -149 -637 -272 -110 -87 -251 -215
-272 -247 -14 -22 -14 -25 2 -43 35 -39 195 -141 290 -185 53 -25 98 -45 101
-45 2 0 44 -16 93 -35 182 -71 361 -105 552 -105 173 0 216 11 454 115 55 24
131 56 169 70 37 14 132 57 209 95 77 39 143 70 147 70 14 0 72 -235 85 -340
3 -30 10 -80 15 -110 41 -247 50 -305 60 -377 17 -130 25 -325 25 -648 0 -514
-11 -764 -46 -1032 -11 -87 -24 -194 -29 -238 -25 -221 -99 -618 -166 -885
-15 -59 -61 -189 -149 -425 -54 -143 -92 -232 -150 -350 -29 -60 -93 -198
-140 -304 -92 -208 -111 -245 -197 -386 -131 -214 -185 -297 -263 -400 -88
-117 -402 -484 -433 -507 -10 -7 -54 -53 -97 -103 -100 -115 -354 -365 -442
-437 -114 -92 -249 -181 -433 -284 -278 -155 -341 -179 -519 -198 -105 -12
-140 -12 -225 -1 -356 48 -720 182 -966 354 -326 229 -652 519 -806 718 -38
48 -95 120 -127 158 -53 63 -119 149 -369 480 -146 193 -212 307 -304 519 -36
83 -103 237 -149 341 -78 179 -144 347 -179 460 -170 536 -245 798 -266 930
-6 39 -24 135 -40 215 -41 210 -49 287 -61 550 -12 256 -9 391 16 660 41 451
120 635 324 754 201 118 321 138 731 126 464 -14 725 -73 1053 -238 200 -100
329 -209 453 -382 137 -189 199 -398 224 -747 13 -186 14 -790 1 -863 -5 -30
-26 -162 -45 -293 -38 -251 -45 -283 -97 -497 -26 -109 -33 -157 -33 -245 -1
-65 4 -124 12 -145 18 -53 126 -158 191 -188 50 -23 76 -27 235 -35 150 -8
439 -1 574 15 7 1 25 15 39 32 48 57 15 148 -70 193 -24 12 -79 14 -325 12
l-297 -2 -51 26 c-29 14 -59 33 -68 42 -18 18 -17 32 15 205 37 201 42 226 80
376 20 83 45 216 54 295 9 79 22 200 30 269 32 282 30 731 -5 930 -5 30 -17
109 -26 175 -44 318 -183 606 -368 764 -248 213 -368 293 -571 383 -219 96
-330 118 -790 159 -190 17 -287 20 -465 16 -207 -4 -232 -6 -315 -31 -306 -91
-422 -157 -517 -291 -46 -65 -95 -163 -124 -249 -13 -38 -28 -74 -33 -80 -27
-34 -74 -248 -96 -436 -8 -69 -17 -213 -21 -320 -6 -192 -4 -223 36 -664 20
-213 108 -671 174 -901 47 -161 256 -776 282 -827 8 -16 28 -64 44 -109 17
-45 63 -149 104 -233 41 -83 86 -182 100 -221 15 -38 33 -81 41 -95 8 -14 24
-45 35 -69 77 -166 305 -495 628 -908 48 -61 107 -140 132 -174 62 -86 322
-352 455 -466 148 -127 520 -378 642 -434 25 -11 66 -33 91 -49 159 -96 461
-173 813 -207 152 -14 187 -15 265 -4 218 33 503 162 844 384 277 180 797 697
1086 1079 183 241 435 652 589 959 82 163 276 580 306 656 41 105 149 433 159
480 6 32 29 131 51 221 21 89 44 195 49 234 6 40 17 101 26 137 8 36 26 144
39 241 14 96 32 222 40 280 73 520 89 823 71 1390 -17 583 -54 845 -175 1240
-22 69 -47 152 -57 185 -33 114 -165 384 -257 527 -97 153 -232 341 -347 484
-58 73 -145 185 -195 250 -128 168 -299 341 -415 419 -52 35 -126 89 -165 119
-91 71 -231 165 -392 262 -154 93 -246 140 -373 189 -52 21 -183 79 -290 130
-353 168 -409 191 -835 342 -71 25 -195 72 -275 103 -240 94 -377 126 -665
155 -88 9 -189 20 -225 25 -60 9 -374 11 -465 3z"/>
<path d="M3554 5479 c-17 -5 -44 -21 -59 -36 -25 -25 -27 -33 -22 -79 7 -66
66 -166 125 -211 23 -18 42 -36 42 -40 0 -4 -13 -11 -30 -16 -41 -10 -99 -46
-110 -67 -6 -10 -10 -37 -10 -60 0 -34 6 -47 33 -71 69 -65 61 -63 417 -65
243 -1 339 -4 380 -15 41 -10 128 -14 340 -14 240 0 298 3 365 18 44 10 134
21 200 24 118 6 122 5 190 -25 90 -39 186 -59 221 -46 35 12 77 89 69 128 -7
38 -16 49 -105 115 -126 95 -186 125 -250 125 -101 0 -353 -23 -530 -49 -213
-32 -326 -33 -490 -7 -202 32 -338 100 -547 274 -45 37 -85 73 -88 78 -8 14
-81 50 -97 49 -7 0 -27 -5 -44 -10z"/>
<path d="M9274 5412 c-27 -21 -78 -56 -114 -77 -36 -21 -101 -61 -145 -90
-325 -211 -344 -218 -615 -230 -202 -9 -333 11 -534 79 -220 76 -224 76 -327
31 -136 -59 -299 -163 -332 -212 -25 -38 -27 -48 -20 -84 10 -49 47 -82 90
-81 16 0 69 18 119 40 179 79 261 79 479 3 180 -63 378 -97 504 -87 147 12
236 26 406 66 100 24 269 49 400 60 117 10 210 33 238 57 27 25 43 61 51 113
6 41 3 49 -25 83 -18 21 -43 43 -57 48 l-25 10 37 36 c37 37 86 128 86 158 0
31 -30 81 -59 98 -50 29 -102 22 -157 -21z"/>
<path d="M10373 4525 c-136 -38 -237 -156 -263 -309 -22 -126 23 -268 112
-352 59 -56 88 -72 159 -90 156 -40 309 36 386 192 66 134 57 290 -24 411 -19
29 -49 65 -66 79 -81 68 -206 97 -304 69z"/>
<path d="M10251 3473 c-26 -9 -67 -37 -97 -67 -106 -104 -108 -251 -3 -355 58
-58 104 -76 199 -76 98 0 140 17 202 82 49 51 68 99 68 175 -1 81 -24 132 -85
186 -77 68 -187 89 -284 55z"/>
<path d="M6218 2480 c-28 -8 -118 -60 -208 -120 -30 -20 -80 -50 -111 -68 -55
-30 -58 -30 -155 -25 -67 4 -111 12 -136 24 -59 30 -104 25 -143 -14 -57 -57
-58 -115 -5 -168 37 -38 83 -38 136 -3 37 26 39 26 89 11 27 -8 88 -31 135
-51 179 -78 281 -104 493 -127 110 -11 142 -10 407 17 340 34 461 63 735 174
17 7 53 12 81 11 62 -2 89 8 132 48 83 78 2 181 -144 181 -26 0 -60 -11 -95
-29 -30 -16 -73 -39 -96 -52 l-41 -22 -99 70 c-126 91 -156 108 -224 127 -95
28 -177 28 -268 2 -45 -13 -97 -36 -116 -50 l-35 -27 -33 33 c-45 45 -116 68
-202 67 -38 0 -82 -4 -97 -9z"/>
<path d="M5945 1876 c-62 -27 -86 -94 -56 -154 42 -83 187 -167 381 -222 109
-31 121 -32 230 -27 103 5 128 11 240 50 243 87 342 143 359 203 14 51 -10
109 -51 123 -54 19 -86 12 -188 -38 -161 -80 -182 -84 -370 -85 -149 0 -169 2
-210 22 -58 28 -183 102 -190 111 -20 31 -94 39 -145 17z"/>
</g>
</svg>
