<svg xmlns="http://www.w3.org/2000/svg" width="60" height="60"><g fill="none" fill-rule="evenodd"><circle cx="30" cy="30" r="30" fill="#25D366"/><path d="M13 13h34v34H13z"/><path fill="#FFF" fill-rule="nonzero" d="M30.505 14h-.01C21.952 14 15 20.953 15 29.5a15.39 15.39 0 002.951 9.084l-1.931 5.76 5.958-1.905A15.377 15.377 0 0030.505 45C39.05 45 46 38.047 46 29.5S39.05 14 30.505 14zm9.018 21.887c-.374 1.057-1.858 1.932-3.043 2.187-.81.173-1.868.31-5.429-1.166-4.555-1.887-7.487-6.516-7.716-6.817-.217-.3-1.84-2.45-1.84-4.674s1.13-3.307 1.586-3.772c.374-.383.993-.556 1.585-.556.191 0 .365.009.519.017.456.02.683.047.984.766.374.902 1.284 3.125 1.393 3.353.11.229.219.538.065.839-.148.31-.274.447-.502.71-.228.265-.446.466-.674.748-.21.245-.445.51-.182.966.264.446 1.176 1.93 2.515 3.124 1.73 1.54 3.133 2.032 3.634 2.242.374.155.82.119 1.093-.173.347-.374.774-.993 1.213-1.603.31-.438.7-.493 1.11-.338.42.145 2.633 1.239 3.089 1.467.455.228.756.337.866.529.108.192.108 1.094-.266 2.15z"/></g></svg>